<svg width="1920" height="511" viewBox="0 0 1920 511" fill="none" xmlns="http://www.w3.org/2000/svg">
<rect width="1920" height="511" fill="#1E1E1E"/>
<g id="Scene" clip-path="url(#clip0_0_1)">
<rect width="1920" height="1080" transform="translate(0 -451.957)" fill="white"/>
<path id="3rd Layer Of Stone" d="M67.8769 1.54297H-18.5H-30.6231L-33 510.043H1952V3.02971C1952 3.02971 1706.04 -3.07198 1698.5 2.04291C1690.96 7.1578 1666.27 50.9818 1661.75 61.8509C1657.23 72.7201 1639.13 93.819 1634.61 102.131C1630.09 110.442 1631.6 162.87 1630.09 171.821C1628.58 180.772 1602.19 206.347 1597.67 212.74C1593.15 219.134 1558.47 245.348 1542.64 248.544C1526.8 251.741 1440.11 270.922 1428.04 271.561C1415.98 272.201 1344.36 269.004 1335.32 275.398C1326.27 281.791 1311.19 300.972 1296.87 308.005C1282.54 315.038 1231.28 331.661 1210.92 334.858C1190.57 338.055 1105.38 333.579 1088.79 337.415C1072.21 341.252 1042.05 359.154 1026.22 361.711C1010.39 364.269 971.185 364.908 959.877 363.629C948.569 362.351 925.198 351.481 921.428 350.203C917.659 348.924 898.812 346.367 889.765 342.53C880.718 338.694 858.855 321.432 845.285 319.513C831.715 317.595 830.207 318.235 817.391 319.513C804.575 320.792 739.74 348.924 727.678 350.203C715.616 351.481 691.491 351.481 677.921 347.645C664.351 343.809 649.273 324.628 624.395 322.71C599.516 320.792 566.345 328.464 552.021 332.301C537.697 336.137 491.709 364.269 474.37 364.908C457.03 365.547 427.629 362.351 408.027 357.875C388.426 353.4 319.822 327.186 303.236 325.907C286.651 324.628 237.648 325.268 226.339 322.071C215.031 318.874 184.875 298.415 184.121 288.185C183.367 277.955 184.121 265.168 186.383 255.577C188.645 245.987 199.199 238.315 199.199 226.806C199.199 215.298 195.43 196.756 197.691 183.969C199.953 171.182 213.523 144.329 217.292 139.214C221.062 134.099 222.57 114.279 218.046 109.803C213.523 105.328 184.875 81.0318 174.321 81.0318C163.766 81.0318 145.673 81.6711 132.103 74.6382C118.532 67.6052 101.947 27.9648 97.4235 25.4074C92.9001 22.8499 77.7269 1.54297 67.8769 1.54297Z" fill="url(#paint0_linear_0_1)"/>
</g>
<defs>
<linearGradient id="paint0_linear_0_1" x1="960" y1="2.04296" x2="852.5" y2="1674.54" gradientUnits="userSpaceOnUse">
<stop stop-color="#063E79" stop-opacity="0.59"/>
<stop offset="1" stop-color="#3894F5" stop-opacity="0"/>
</linearGradient>
<clipPath id="clip0_0_1">
<rect width="1920" height="1080" fill="white" transform="translate(0 -451.957)"/>
</clipPath>
</defs>
</svg>
