<svg preserveAspectRatio="none" overflow="visible" style="display: block;" width="184.578" height="103.369" viewBox="0 0 184.578 103.369" fill="none" xmlns="http://www.w3.org/2000/svg">
<g id="Cloud2">
<path id="Union" d="M87.3086 0C104.277 0 118.65 10.4307 123.568 24.8405C124.767 28.3548 128.235 30.8535 131.948 30.8535C147.538 30.8537 160.176 41.1401 160.176 53.8291C160.176 56.8767 162.166 59.9218 165.146 60.5611C175.791 62.8448 183.521 68.743 184.479 76.4873C185.892 87.9132 172.03 99.0323 153.518 101.322C144.694 102.414 136.407 101.301 129.996 98.6011C127.764 97.6614 125.262 97.4303 122.96 98.1822C113.557 101.254 102.044 103.063 89.6064 103.063C76.6882 103.063 64.7667 101.112 55.1716 97.8214C52.7403 96.9875 50.0728 97.2483 47.7418 98.3315C43.0623 100.506 37.631 101.751 31.8379 101.751C14.2545 101.751 0.000271776 90.2887 0 76.1494C0 62.01 14.2543 50.547 31.8379 50.5469C33.3293 50.5469 34.4612 49.0621 34.2649 47.5836C34.1797 46.9425 34.1358 46.2884 34.1357 45.624C34.1357 37.4666 40.7488 30.8535 48.9062 30.8535C49.2955 30.8535 49.6339 30.5752 49.698 30.1912C52.5522 13.0855 68.303 8.40487e-05 87.3086 0Z" fill="url(#paint0_linear_0_4)"/>
<path id="Intersect" d="M32.2959 72.427C31.1626 69.8993 34.345 68.445 36.8691 69.5862C42.8749 72.3019 51.0204 75.1312 57.6934 75.2151C61.6679 75.2653 66.5213 77.3891 69.2109 80.3157C72.0251 83.3778 76.3426 85.9168 82.502 86.052C86.6403 86.1424 86.8695 80.0309 85.2832 76.2073C84.2389 73.6899 87.5326 71.9668 90.0664 72.971C96.4108 75.4853 106.029 76.8437 115.667 71.7288C119.158 69.8761 123.733 70.9282 123.674 74.8802C123.653 76.3129 123.459 77.8265 123.018 79.3597C121.704 83.9267 122.963 89.9118 127.711 89.7151C132.477 89.5176 137.726 88.2094 142.264 84.7864C145.846 82.084 151.63 81.9959 155.14 84.7932C159.125 87.9704 163.818 89.3101 167.644 84.5003C169.376 82.3221 172 80.855 174.75 80.428C175.869 80.2542 177.025 79.9416 178.145 79.4436C180.044 78.5986 182.378 77.8095 184.541 77.4641C185.344 88.6514 171.668 99.3831 153.518 101.628C144.286 102.77 135.642 101.5 129.119 98.5227C127.467 97.7688 125.587 97.6008 123.868 98.1858C114.303 101.441 102.447 103.369 89.6064 103.369C76.2513 103.369 63.9613 101.285 54.2061 97.7893C52.3913 97.1392 50.3862 97.3283 48.6631 98.1927C43.7813 100.641 38.0153 102.057 31.8379 102.057C16.3117 102.057 3.38271 93.1198 0.569336 81.2942C2.50627 79.9946 5.91485 79.6924 8.88184 80.9876C14.3152 83.3596 21.2303 84.6557 29.751 83.679C34.1583 83.1737 34.1108 76.4752 32.2959 72.427Z" fill="url(#paint1_linear_0_4)"/>
</g>
<defs>
<linearGradient id="paint0_linear_0_4" x1="92.2888" y1="7.89075e-07" x2="72.8668" y2="209.737" gradientUnits="userSpaceOnUse">
<stop stop-color="#C9F2EE" stop-opacity="0.47"/>
<stop offset="1" stop-color="#C9F2EE" stop-opacity="0.47"/>
</linearGradient>
<linearGradient id="paint1_linear_0_4" x1="85.317" y1="61.375" x2="88.2349" y2="141.5" gradientUnits="userSpaceOnUse">
<stop stop-color="#042549" stop-opacity="0.5"/>
<stop offset="1" stop-color="#2EC2B4" stop-opacity="0.5"/>
</linearGradient>
</defs>
</svg>
